<?xml version="1.0" encoding="utf-8"?>
<!-- Generator: Adobe Illustrator 21.0.0, SVG Export Plug-In . SVG Version: 6.00 Build 0)  -->
<svg version="1.1" id="Layer_1" xmlns="http://www.w3.org/2000/svg" xmlns:xlink="http://www.w3.org/1999/xlink" x="0px" y="0px"
	 viewBox="0 0 20 20" style="enable-background:new 0 0 20 20;" xml:space="preserve">
<style type="text/css">
	.st0{fill:#FFFFFF;}
</style>
<title>278A9D0A-4C02-4E89-940F-DF7D8D355B16</title>
<desc>Created with sketchtool.</desc>
<g id="Page-1">
	<g id="Bridge_Home" transform="translate(-1354.000000, -3598.000000)">
		<g id="Footer" transform="translate(0.000000, 3060.000000)">
			<g id="nav" transform="translate(0.000000, 460.000000)">
				<g id="Group-9">
					<path id="LinkedIn" class="st0" d="M1374,89.7v7.4h-4.3v-6.9c0-1.7-0.6-2.9-2.2-2.9c-1.2,0-1.9,0.8-2.2,1.6
						c-0.1,0.3-0.1,0.7-0.1,1v7.2h-4.3c0,0,0.1-11.7,0-12.9h4.3V86c0,0,0,0,0,0h0v0c0.6-0.9,1.6-2.1,3.9-2.1
						C1371.9,83.9,1374,85.8,1374,89.7z M1356.4,78c-1.5,0-2.4,1-2.4,2.2c0,1.2,0.9,2.2,2.4,2.2h0c1.5,0,2.4-1,2.4-2.2
						C1358.8,79,1357.9,78,1356.4,78z M1354.3,97.1h4.3V84.2h-4.3V97.1z"/>
				</g>
			</g>
		</g>
	</g>
</g>
</svg>
