<?xml version="1.0" encoding="UTF-8"?>
<svg width="139px" height="32px" viewBox="0 0 139 32" version="1.1" xmlns="http://www.w3.org/2000/svg" xmlns:xlink="http://www.w3.org/1999/xlink">
    <!-- Generator: sketchtool 63.1 (101010) - https://sketch.com -->
    <title>D97E8037-61D6-4A03-B249-A47B2A90FF17</title>
    <desc>Created with sketchtool.</desc>
    <defs>
        <polygon id="path-1" points="5.48094465e-05 0.429311114 43.1312526 0.429311114 43.1312526 31.2814092 5.48094465e-05 31.2814092"></polygon>
    </defs>
    <g id="Page-1" stroke="none" stroke-width="1" fill="none" fill-rule="evenodd">
        <g id="Bridge_Home" transform="translate(-64.000000, -23.000000)">
            <g id="Header" transform="translate(0.000000, 16.000000)">
                <g id="Group-10" transform="translate(64.000000, 0.000000)">
                    <g id="Logo" transform="translate(0.000000, 7.000000)">
                        <g id="Group-3" transform="translate(-0.000000, -0.000000)">
                            <mask id="mask-2" fill="white">
                                <use xlink:href="#path-1"></use>
                            </mask>
                            <g id="Clip-2"></g>
                            <path d="M39.6097456,14.7879881 C41.1296116,13.1969481 41.9621671,11.1345289 41.9621671,8.94752318 C41.9621671,4.25098903 38.0789178,0.429257181 33.3055631,0.429257181 L5.48094465e-05,0.429257181 L3.83397559,4.20029149 C4.44400473,4.80272932 5.29300306,5.14790409 6.16228088,5.14790409 L33.3055631,5.14790409 C34.4708119,5.14790409 35.5642604,5.65973354 36.3041879,6.55179458 C37.0380864,7.43576558 37.3236436,8.59425838 37.087963,9.73279577 C36.7360863,11.480243 35.1005724,12.7487603 33.1992327,12.7487603 L13.1762458,12.7487603 L12.5289462,12.7590077 L16.3754731,16.5305813 L16.467553,16.6109423 C17.0753898,17.1626826 17.8651939,17.4674072 18.6917204,17.4674072 L33.5072618,17.4674072 C35.979716,17.4674072 38.0926201,19.262316 38.3167908,21.5544921 C38.4466892,22.8494368 38.0284931,24.0947627 37.1394839,25.059634 C36.2597922,26.0147973 35.0095888,26.5627622 33.7089606,26.5627622 L26.580444,26.5627622 L30.4138167,30.3354146 C31.0243939,30.9362344 31.8733922,31.2814092 32.742122,31.2814092 L33.7089606,31.2814092 C38.904348,31.2814092 43.1312526,27.1220532 43.1312526,22.0096914 C43.1312526,19.178719 41.8520001,16.5629414 39.6097456,14.7879881" id="Fill-1" fill="#1FC1C3" mask="url(#mask-2)"></path>
                        </g>
                        <path d="M58.6383248,16.1850829 L56.614212,16.1850829 L56.614212,20.1346373 L58.6832686,20.1346373 C60.1921726,20.1346373 61.0872109,19.5295028 61.0872109,18.1541971 C61.0872109,16.7794307 60.1368151,16.1850829 58.6383248,16.1850829 L58.6383248,16.1850829 Z M60.6399658,12.102852 C60.6399658,10.9912814 60.0250038,10.3203479 58.6942305,10.3203479 L56.614212,10.3203479 L56.614212,13.9290422 L58.7835699,13.9290422 C60.0359657,13.9290422 60.6399658,13.2138833 60.6399658,12.102852 L60.6399658,12.102852 Z M53.4610245,22.6765259 L53.4610245,7.7784594 L58.9403249,7.7784594 C62.2721911,7.7784594 63.8041152,9.37381402 63.8041152,11.9491414 C63.8041152,13.3573465 63.06638,14.4354783 61.7580785,15.0185001 C63.2450588,15.5799484 64.3297377,16.8339036 64.3297377,18.4292582 C64.3297377,21.2240952 62.3171349,22.6765259 58.9962305,22.6765259 L53.4610245,22.6765259 Z" id="Fill-7" fill="#FFFFFF"></path>
                        <path d="M73.1344917,10.3535171 L73.1344917,15.4146421 L75.1695664,15.4146421 C76.5003398,15.4146421 77.3608481,14.6994831 77.3608481,13.3786503 L77.3608481,12.3663174 C77.3608481,11.05735 76.5003398,10.3535171 75.1695664,10.3535171 L73.1344917,10.3535171 Z M75.2698677,7.77872907 C78.4011314,7.77872907 80.6707906,9.36275764 80.6707906,12.3884302 L80.6707906,13.3462902 C80.6707906,15.3596298 79.6085835,16.6691366 78.1106413,17.3179573 L80.928395,22.6767955 L77.3389243,22.6767955 L75.0128114,17.8907317 L73.1344917,17.8907317 L73.1344917,22.6767955 L69.8135873,22.6767955 L69.8135873,7.77872907 L75.2698677,7.77872907 Z" id="Fill-9" fill="#FFFFFF"></path>
                        <polygon id="Fill-11" fill="#FFFFFF" points="86.4788928 22.6763641 89.7997972 22.6763641 89.7997972 7.7782976 86.4788928 7.7782976"></polygon>
                        <path d="M104.015888,13.2250475 C104.015888,11.7947296 103.367492,10.3536249 101.45519,10.3536249 L99.509455,10.3536249 L99.509455,20.1021154 L101.45519,20.1021154 C103.143869,20.1021154 104.015888,19.2548192 104.015888,17.835288 L104.015888,13.2250475 Z M96.1885507,7.7782976 L101.600435,7.7782976 C104.977245,7.7782976 107.348302,9.62713993 107.348302,12.6641385 L107.348302,17.8795135 C107.348302,21.1802472 104.977245,22.6763641 101.600435,22.6763641 L96.1885507,22.6763641 L96.1885507,7.7782976 Z" id="Fill-13" fill="#FFFFFF"></path>
                        <path d="M123.331449,22.060335 C122.224298,22.5225456 120.401884,22.8968444 118.546036,22.8968444 C115.292,22.8968444 112.79817,21.1472399 112.79817,17.7580551 L112.79817,12.8835402 C112.79817,9.36275764 115.470678,7.55814082 119.071659,7.55814082 C120.849129,7.55814082 122.302676,7.94322642 123.063431,8.24040031 L122.559732,10.8702006 C121.888865,10.6393649 120.625507,10.3314043 119.418055,10.3314043 C117.348998,10.3314043 116.130584,11.3437372 116.130584,13.0706897 L116.130584,17.6593567 C116.130584,19.3647358 117.159357,20.1899192 118.914904,20.1899192 C119.484922,20.1899192 119.977111,20.1235809 120.412846,20.0033091 L120.412846,15.2167059 L123.331449,15.2167059 L123.331449,22.060335 Z" id="Fill-14" fill="#FFFFFF"></path>
                        <polygon id="Fill-15" fill="#FFFFFF" points="129.184112 7.77851333 138.520901 7.77851333 138.520901 10.5404508 132.516526 10.5404508 132.516526 13.8961967 138.297278 13.8961967 138.297278 16.4823108 132.516526 16.4823108 132.516526 19.9146423 138.755485 19.9146423 138.755485 22.6765798 129.184112 22.6765798"></polygon>
                    </g>
                </g>
            </g>
        </g>
    </g>
</svg>